<svg width="41" height="40" viewBox="0 0 41 40" fill="none" xmlns="http://www.w3.org/2000/svg">
<path d="M32 3.33337H8.66669C7.3406 3.33337 6.06884 3.86016 5.13115 4.79784C4.19347 5.73552 3.66669 7.00729 3.66669 8.33337V31.6667C3.66669 32.9928 4.19347 34.2646 5.13115 35.2022C6.06884 36.1399 7.3406 36.6667 8.66669 36.6667H32C33.3261 36.6667 34.5979 36.1399 35.5356 35.2022C36.4732 34.2646 37 32.9928 37 31.6667V8.33337C37 7.00729 36.4732 5.73552 35.5356 4.79784C34.5979 3.86016 33.3261 3.33337 32 3.33337ZM27.15 6.66671L20.4834 13.3334H13.5167L20.1834 6.66671H27.15ZM7.00002 8.33337C7.00002 7.89135 7.17562 7.46742 7.48818 7.15486C7.80074 6.8423 8.22466 6.66671 8.66669 6.66671H15.4834L8.81669 13.3334H7.00002V8.33337ZM33.6667 31.6667C33.6667 32.1087 33.4911 32.5327 33.1785 32.8452C32.866 33.1578 32.442 33.3334 32 33.3334H8.66669C8.22466 33.3334 7.80074 33.1578 7.48818 32.8452C7.17562 32.5327 7.00002 32.1087 7.00002 31.6667V16.6667H33.6667V31.6667ZM33.6667 13.3334H25.1834L31.85 6.66671H32C32.442 6.66671 32.866 6.8423 33.1785 7.15486C33.4911 7.46742 33.6667 7.89135 33.6667 8.33337V13.3334Z" fill="white"/>
</svg>
