<svg width="247" height="80" viewBox="0 0 247 80" fill="none" xmlns="http://www.w3.org/2000/svg">
<rect y="0.5" width="52" height="52" rx="26" fill="white"/>
<path d="M30.7792 27.7173L31.3493 23.9634H27.7831V21.5284C27.7831 20.5012 28.2804 19.4993 29.8776 19.4993H31.5V16.3034C31.5 16.3034 30.0283 16.0498 28.6219 16.0498C25.6836 16.0498 23.7648 17.8481 23.7648 21.1023V23.9634H20.5V27.7173H23.7648V36.7925C24.4203 36.8965 25.0909 36.9498 25.774 36.9498C26.4571 36.9498 27.1276 36.8965 27.7831 36.7925V27.7173H30.7792Z" fill="#4E4B66"/>
<rect x="65" y="27.5" width="52" height="52" rx="26" fill="white"/>
<g clip-path="url(#clip0_33_212)">
<path d="M93.093 51.8155L101.283 42.5H99.3422L92.2308 50.5885L86.551 42.5H80L88.589 54.7313L80 64.5H81.9409L89.4507 55.9583L95.449 64.5H102L93.0925 51.8155H93.093ZM90.4347 54.839L89.5644 53.6211L82.6402 43.9296H85.6213L91.2092 51.7509L92.0795 52.9689L99.3431 63.1354H96.3621L90.4347 54.8395V54.839Z" fill="#FC653C"/>
</g>
<rect x="130" y="27.5" width="52" height="52" rx="26" fill="white"/>
<g clip-path="url(#clip1_33_212)">
<path d="M156 44.4825C158.939 44.4825 159.284 44.4956 160.445 44.548C161.52 44.5961 162.1 44.7751 162.489 44.9279C163.004 45.1288 163.371 45.3646 163.755 45.7489C164.14 46.1332 164.38 46.5 164.576 47.0153C164.725 47.4039 164.908 47.9847 164.956 49.059C165.009 50.2205 165.022 50.5655 165.022 53.5044C165.022 56.4432 165.009 56.7882 164.956 57.9498C164.908 59.024 164.729 59.6048 164.576 59.9935C164.376 60.5087 164.14 60.8755 163.755 61.2598C163.371 61.6441 163.004 61.8843 162.489 62.0808C162.1 62.2293 161.52 62.4127 160.445 62.4607C159.284 62.5131 158.939 62.5262 156 62.5262C153.061 62.5262 152.716 62.5131 151.555 62.4607C150.48 62.4127 149.9 62.2336 149.511 62.0808C148.996 61.8799 148.629 61.6441 148.245 61.2598C147.86 60.8755 147.62 60.5087 147.424 59.9935C147.275 59.6048 147.092 59.024 147.044 57.9498C146.991 56.7882 146.978 56.4432 146.978 53.5044C146.978 50.5655 146.991 50.2205 147.044 49.059C147.092 47.9847 147.271 47.4039 147.424 47.0153C147.624 46.5 147.86 46.1332 148.245 45.7489C148.629 45.3646 148.996 45.1245 149.511 44.9279C149.9 44.7795 150.48 44.5961 151.555 44.548C152.716 44.4913 153.066 44.4825 156 44.4825ZM156 42.5C153.013 42.5 152.638 42.5131 151.463 42.5655C150.293 42.6179 149.493 42.8057 148.795 43.0764C148.07 43.3559 147.459 43.7358 146.847 44.3472C146.236 44.9585 145.86 45.5742 145.576 46.2948C145.306 46.9934 145.118 47.7926 145.066 48.9672C145.013 50.1376 145 50.5131 145 53.5C145 56.4869 145.013 56.8624 145.066 58.0371C145.118 59.2074 145.306 60.0065 145.576 60.7096C145.856 61.4345 146.236 62.0459 146.847 62.6572C147.459 63.2686 148.074 63.6441 148.795 63.9279C149.493 64.1987 150.293 64.3865 151.467 64.4389C152.642 64.4913 153.013 64.5044 156.004 64.5044C158.996 64.5044 159.367 64.4913 160.541 64.4389C161.712 64.3865 162.511 64.1987 163.214 63.9279C163.939 63.6485 164.55 63.2686 165.162 62.6572C165.773 62.0459 166.148 61.4301 166.432 60.7096C166.703 60.0109 166.891 59.2118 166.943 58.0371C166.996 56.8624 167.009 56.4913 167.009 53.5C167.009 50.5087 166.996 50.1376 166.943 48.9629C166.891 47.7926 166.703 46.9934 166.432 46.2904C166.153 45.5655 165.773 44.9541 165.162 44.3428C164.55 43.7314 163.935 43.3559 163.214 43.0721C162.515 42.8013 161.716 42.6135 160.541 42.5611C159.362 42.5131 158.987 42.5 156 42.5Z" fill="#4E4B66"/>
<path d="M156 44.4825C158.939 44.4825 159.284 44.4956 160.445 44.548C161.52 44.5961 162.1 44.7751 162.489 44.9279C163.004 45.1288 163.371 45.3646 163.755 45.7489C164.14 46.1332 164.38 46.5 164.576 47.0153C164.725 47.4039 164.908 47.9847 164.956 49.059C165.009 50.2205 165.022 50.5655 165.022 53.5044C165.022 56.4432 165.009 56.7882 164.956 57.9498C164.908 59.024 164.729 59.6048 164.576 59.9935C164.376 60.5087 164.14 60.8755 163.755 61.2598C163.371 61.6441 163.004 61.8843 162.489 62.0808C162.1 62.2293 161.52 62.4127 160.445 62.4607C159.284 62.5131 158.939 62.5262 156 62.5262C153.061 62.5262 152.716 62.5131 151.555 62.4607C150.48 62.4127 149.9 62.2336 149.511 62.0808C148.996 61.8799 148.629 61.6441 148.245 61.2598C147.86 60.8755 147.62 60.5087 147.424 59.9935C147.275 59.6048 147.092 59.024 147.044 57.9498C146.991 56.7882 146.978 56.4432 146.978 53.5044C146.978 50.5655 146.991 50.2205 147.044 49.059C147.092 47.9847 147.271 47.4039 147.424 47.0153C147.624 46.5 147.86 46.1332 148.245 45.7489C148.629 45.3646 148.996 45.1245 149.511 44.9279C149.9 44.7795 150.48 44.5961 151.555 44.548C152.716 44.4913 153.066 44.4825 156 44.4825Z" fill="#4E4B66"/>
<path d="M156 47.854C152.882 47.854 150.349 50.3824 150.349 53.5047C150.349 56.6269 152.878 59.1553 156 59.1553C159.122 59.1553 161.651 56.6269 161.651 53.5047C161.651 50.3824 159.122 47.854 156 47.854ZM156 57.1684C153.974 57.1684 152.332 55.5265 152.332 53.5003C152.332 51.4741 153.974 49.8322 156 49.8322C158.026 49.8322 159.668 51.4741 159.668 53.5003C159.668 55.5265 158.026 57.1684 156 57.1684Z" fill="white"/>
<path d="M161.873 48.9457C162.602 48.9457 163.192 48.3552 163.192 47.6269C163.192 46.8985 162.602 46.3081 161.873 46.3081C161.145 46.3081 160.555 46.8985 160.555 47.6269C160.555 48.3552 161.145 48.9457 161.873 48.9457Z" fill="white"/>
</g>
<rect x="195" y="0.5" width="52" height="52" rx="26" fill="white"/>
<path d="M231.547 21.21C231.293 20.2677 230.55 19.5247 229.608 19.271C227.886 18.7998 221 18.7998 221 18.7998C221 18.7998 214.114 18.7998 212.392 19.2529C211.468 19.5066 210.707 20.2677 210.453 21.21C210 22.9316 210 26.5016 210 26.5016C210 26.5016 210 30.0897 210.453 31.7932C210.707 32.7355 211.45 33.4785 212.392 33.7322C214.132 34.2034 221 34.2034 221 34.2034C221 34.2034 227.886 34.2034 229.608 33.7503C230.55 33.4966 231.293 32.7536 231.547 31.8113C232 30.0897 232 26.5197 232 26.5197C232 26.5197 232.018 22.9316 231.547 21.21Z" fill="#4E4B66"/>
<path d="M218.807 29.8L224.534 26.5018L218.807 23.2036V29.8Z" fill="white"/>
<defs>
<clipPath id="clip0_33_212">
<rect width="22" height="22" fill="white" transform="translate(80 42.5)"/>
</clipPath>
<clipPath id="clip1_33_212">
<rect width="22" height="22" fill="white" transform="translate(145 42.5)"/>
</clipPath>
</defs>
</svg>
