<svg width="25" height="24" viewBox="0 0 25 24" fill="none" xmlns="http://www.w3.org/2000/svg">
<path d="M18.5867 6.62C18.4852 6.37565 18.291 6.18147 18.0467 6.08C17.9264 6.02876 17.7973 6.00158 17.6667 6H7.66667C7.40146 6 7.1471 6.10536 6.95957 6.29289C6.77203 6.48043 6.66667 6.73478 6.66667 7C6.66667 7.26522 6.77203 7.51957 6.95957 7.70711C7.1471 7.89464 7.40146 8 7.66667 8H15.2567L6.95667 16.29C6.86294 16.383 6.78855 16.4936 6.73778 16.6154C6.68701 16.7373 6.66087 16.868 6.66087 17C6.66087 17.132 6.68701 17.2627 6.73778 17.3846C6.78855 17.5064 6.86294 17.617 6.95667 17.71C7.04963 17.8037 7.16024 17.8781 7.28209 17.9289C7.40395 17.9797 7.53466 18.0058 7.66667 18.0058C7.79868 18.0058 7.92939 17.9797 8.05125 17.9289C8.17311 17.8781 8.28371 17.8037 8.37667 17.71L16.6667 9.41V17C16.6667 17.2652 16.772 17.5196 16.9596 17.7071C17.1471 17.8946 17.4015 18 17.6667 18C17.9319 18 18.1862 17.8946 18.3738 17.7071C18.5613 17.5196 18.6667 17.2652 18.6667 17V7C18.6651 6.86932 18.6379 6.74022 18.5867 6.62Z" fill="#0050BB"/>
</svg>
